<svg id="Layer_1" data-name="Layer 1" xmlns="http://www.w3.org/2000/svg" viewBox="0 0 150 150">
  <g>
    <circle cx="75" cy="103.21" r="10.5"/>
    <path d="M75,94.71a8.5,8.5,0,1,1-8.5,8.5,8.51,8.51,0,0,1,8.5-8.5m0-4a12.5,12.5,0,1,0,12.5,12.5A12.5,12.5,0,0,0,75,90.71Z"/>
  </g>
  <path d="M75,25.79a8.51,8.51,0,0,1,8.5,8.5V83.87l2,1.15a21,21,0,1,1-21,0l2-1.15V34.29a8.51,8.51,0,0,1,8.5-8.5m0-4a12.5,12.5,0,0,0-12.5,12.5V81.56a25,25,0,1,0,25,0V34.29A12.5,12.5,0,0,0,75,21.79Z"/>
  <g>
    <path d="M75,113.71A1.76,1.76,0,0,1,73.24,112V60a1.76,1.76,0,0,1,3.52,0v52A1.76,1.76,0,0,1,75,113.71Z"/>
    <path d="M75,56.22A3.76,3.76,0,0,0,71.24,60v52a3.76,3.76,0,1,0,7.52,0V60A3.76,3.76,0,0,0,75,56.22Z"/>
  </g>
</svg>
