<svg id="Layer_1" data-name="Layer 1" xmlns="http://www.w3.org/2000/svg" viewBox="0 0 150 150">
  <path d="M48.74,27.63C54.2,33.78,62.57,45,62.57,53.25c0,9.92-4.4,14.54-13.83,14.54S34.92,63.17,34.92,53.25c0-8.29,8.36-19.47,13.82-25.62m0-5.84S30.92,39.44,30.92,53.25s8,18.54,17.82,18.54,17.83-4.73,17.83-18.54S48.74,21.79,48.74,21.79Z"/>
  <path d="M101.26,27.63c5.46,6.15,13.82,17.33,13.82,25.62,0,9.92-4.39,14.54-13.82,14.54S87.43,63.17,87.43,53.25c0-8.29,8.37-19.47,13.83-25.62m0-5.84S83.43,39.44,83.43,53.25s8,18.54,17.83,18.54,17.82-4.73,17.82-18.54-17.82-31.46-17.82-31.46Z"/>
  <path d="M75,84.05c5.46,6.13,13.82,17.31,13.82,25.62,0,9.92-4.39,14.54-13.82,14.54s-13.82-4.62-13.82-14.54c0-8.29,8.36-19.48,13.82-25.62m0-5.84S57.18,95.86,57.18,109.67s8,18.54,17.82,18.54,17.82-4.73,17.82-18.54S75,78.21,75,78.21Z"/>
</svg>
