<svg id="Layer_1" data-name="Layer 1" xmlns="http://www.w3.org/2000/svg" viewBox="0 0 150 150">
  <defs>
    <style>
      .cls-1, .cls-2 {
        fill: none;
        stroke: #000;
        stroke-miterlimit: 10;
        stroke-width: 4px;
      }

      .cls-1 {
        stroke-linecap: round;
      }
    </style>
  </defs>
  <g>
    <line class="cls-1" x1="75" y1="25.86" x2="75" y2="18.83"/>
    <line class="cls-1" x1="56.99" y1="29.27" x2="54.42" y2="22.73"/>
    <line class="cls-1" x1="40.8" y1="39.71" x2="35.9" y2="34.66"/>
    <line class="cls-1" x1="29.89" y1="55.5" x2="23.44" y2="52.71"/>
    <line class="cls-1" x1="93.82" y1="29.6" x2="96.51" y2="23.11"/>
    <line class="cls-1" x1="109.81" y1="40.3" x2="114.78" y2="35.34"/>
    <line class="cls-1" x1="120.45" y1="56.31" x2="126.96" y2="53.64"/>
    <circle class="cls-2" cx="75" cy="75.18" r="39.38"/>
    <line class="cls-1" x1="123.97" y1="75.23" x2="131" y2="75.26"/>
    <line class="cls-1" x1="120.15" y1="94.08" x2="126.64" y2="96.79"/>
    <line class="cls-1" x1="109.43" y1="109.87" x2="114.38" y2="114.87"/>
    <line class="cls-1" x1="93.39" y1="120.47" x2="96.05" y2="126.98"/>
    <line class="cls-1" x1="93.51" y1="120.63" x2="96.18" y2="127.13"/>
    <line class="cls-1" x1="74.59" y1="124.14" x2="74.57" y2="131.17"/>
    <line class="cls-1" x1="55.74" y1="120.33" x2="53.03" y2="126.81"/>
    <line class="cls-1" x1="39.95" y1="109.61" x2="34.95" y2="114.55"/>
    <line class="cls-1" x1="29.35" y1="93.57" x2="22.84" y2="96.22"/>
    <line class="cls-1" x1="19" y1="75.23" x2="26.03" y2="75.26"/>
  </g>
</svg>
