<svg id="Layer_1" data-name="Layer 1" xmlns="http://www.w3.org/2000/svg" viewBox="0 0 150 150">
  <defs>
    <style>
      .cls-1 {
        fill: none;
        stroke: #000;
        stroke-linecap: round;
        stroke-miterlimit: 10;
        stroke-width: 4px;
      }
    </style>
  </defs>
  <g>
    <path class="cls-1" d="M2.66,80.9s103.13,0,117.86,0A32.45,32.45,0,0,0,131.7,79c7.05-2.57,15.86-8.57,15.86-22.59,0-15.9-11.33-21.49-18.57-23.45a24.22,24.22,0,0,0-12-.19c-7.25,1.75-18.42,7.12-18.42,23.64"/>
    <path class="cls-1" d="M3.13,64.87s53.32,0,60.93,0a16.7,16.7,0,0,0,5.78-1c3.65-1.33,8.2-4.44,8.2-11.68,0-8.22-5.85-11.11-9.6-12.12a12.44,12.44,0,0,0-6.18-.1c-3.75.9-9.53,3.68-9.53,12.22"/>
    <path class="cls-1" d="M3.13,96.56s71.69,0,81.92,0a22.63,22.63,0,0,1,7.78,1.31c4.9,1.78,11,5.95,11,15.7,0,11.05-7.87,14.94-12.91,16.29a16.71,16.71,0,0,1-8.31.14c-5-1.22-12.81-5-12.81-16.43"/>
  </g>
</svg>
